<svg xmlns="http://www.w3.org/2000/svg" xmlns:xlink="http://www.w3.org/1999/xlink" viewBox="0 0 251.42 250.99"><defs><style>.cls-1{fill:none;}.cls-2{fill:url(#linear-gradient);}.cls-3{clip-path:url(#clip-path);}.cls-4{fill:#6f8748;opacity:0.3;}</style><linearGradient id="linear-gradient" x1="-321.38" y1="623.7" x2="-41.88" y2="1058.6" gradientTransform="matrix(0.39, 0.92, -0.92, 0.39, 940.23, -15.27)" gradientUnits="userSpaceOnUse"><stop offset="0" stop-color="#6ee35d"/><stop offset="1" stop-color="#2e9eff"/></linearGradient><clipPath id="clip-path"><path class="cls-1" d="M250.69,32.66c6.85,40.76-59.37,6.82-51.51,89,5.45,57-55.85,15.9-66.77,76.55-6,33.27-15,71.68-62,42.31S-31.8,146.28,22.47,128.82,51.63,62.19,133.11,49.9c69.08-10.42,28.2-36.38,74.8-48.71C234.49-5.84,248.55,19.93,250.69,32.66Z"/></clipPath></defs><title>Asset 7</title><g id="Layer_2" data-name="Layer 2"><g id="Layer_1-2" data-name="Layer 1"><path class="cls-2" d="M250.69,32.66c6.85,40.76-59.37,6.82-51.51,89,5.45,57-55.85,15.9-66.77,76.55-6,33.27-15,71.68-62,42.31S-31.8,146.28,22.47,128.82,51.63,62.19,133.11,49.9c69.08-10.42,28.2-36.38,74.8-48.71C234.49-5.84,248.55,19.93,250.69,32.66Z"/><g class="cls-3"><path class="cls-4" d="M135.61,188.36l.32-.24-1-1.27-.32.25c-12,9.32-26,9.93-41.75,1.8a82.71,82.71,0,0,1-19.68-14.63c14.55-13,29.88-27.26,45.09-41.76,21.28,16.84,42.15,12.09,56,5.09A90.75,90.75,0,0,0,199.45,118l.26-.31-1.23-1-.25.31a88.23,88.23,0,0,1-24.71,19.18c-13.36,6.77-33.51,11.37-54.06-4.77,18.46-17.6,36.72-35.52,53.24-52,16,13.69,31.84,1.43,32,1.3l.31-.25-1-1.25-.32.24c-.15.12-15,11.48-29.86-1.18,18.52-18.45,34.77-35,46.51-47,12.24,11.66,30.53,2.2,30.71,2.1l.36-.19-.76-1.42-.35.19c-.18.09-17.45,9-28.84-1.83,11.21-11.51,18-18.63,18.32-18.94l.27-.29-1.17-1.1-.27.29c-1,1-16.38,17.11-39.05,40.09-7.06-7.43-10.2-15.13-9.29-22.89C192,12.34,208.18,2,208.34,1.87l.34-.21L207.82.3l-.34.21c-.17.11-17,10.9-18.8,26.58a25.06,25.06,0,0,0,2,12.9,39.18,39.18,0,0,0,7.78,11.33c-10.76,10.9-23.09,23.29-36.25,36.31-7.92,7.84-16.48,16.24-25.41,24.89-13.44-11.41-20-23-19.45-34.59.77-16.49,16.08-27.26,16.23-27.37l.33-.23L133,49l-.33.23c-.16.11-16.11,11.26-16.92,28.61a32,32,0,0,0,2.72,14.26c3.1,7.24,8.88,14.48,17.17,21.54-15.72,15.23-32.53,31.2-49,46.3-11.27-13.16-24-33.24-22.31-55.29,1-13.33,7-21.2,7.07-21.27l.25-.32-1.27-1-.25.32c-.06.08-6.3,8.32-7.4,22.08C62,114,63.76,123.91,68.09,134a106.82,106.82,0,0,0,17.34,27c-16.86,15.42-33.33,29.88-47.86,41.62-14.16-23.74-14.63-43.52-12.49-56,2.33-13.61,8.18-21.67,8.24-21.75l.24-.32-1.29-1L32,124c-.06.09-6.11,8.35-8.53,22.39-1.69,9.78-2,25.41,6.11,44.29a109.39,109.39,0,0,0,6.7,13c-1.94,1.56-3.85,3.08-5.72,4.53l-.31.25,1,1.27.32-.25C43.66,200,57.43,188.33,72,175.34a85,85,0,0,0,20.12,15C108.2,198.65,123.24,198,135.61,188.36Z"/></g></g></g></svg>