<svg xmlns="http://www.w3.org/2000/svg" xmlns:xlink="http://www.w3.org/1999/xlink" viewBox="0 0 1921 1610.78"><defs><style>.cls-1{opacity:0.2;fill:url(#linear-gradient);}.cls-2,.cls-3,.cls-5,.cls-7{opacity:0.3;}.cls-2{fill:url(#linear-gradient-2);}.cls-3{fill:url(#linear-gradient-3);}.cls-4{fill:url(#linear-gradient-4);}.cls-5{fill:#fff;}.cls-6{opacity:0.05;fill:url(#linear-gradient-5);}.cls-7{fill:url(#linear-gradient-6);}.cls-8{opacity:0.5;fill:url(#linear-gradient-7);}</style><linearGradient id="linear-gradient" x1="718.06" y1="1225.37" x2="1738.25" y2="1005.72" gradientUnits="userSpaceOnUse"><stop offset="0" stop-color="#e7fff8"/><stop offset="0.59" stop-color="#7be3fc"/><stop offset="1" stop-color="#2ed0ff"/></linearGradient><linearGradient id="linear-gradient-2" x1="536.09" y1="1481.78" x2="2653.66" y2="1025.87" xlink:href="#linear-gradient"/><linearGradient id="linear-gradient-3" x1="-454.48" y1="1148.24" x2="1853.86" y2="-259.74" xlink:href="#linear-gradient"/><linearGradient id="linear-gradient-4" x1="229.13" y1="-97.4" x2="4877.48" y2="3429.97" gradientUnits="userSpaceOnUse"><stop offset="0" stop-color="#e7fff8"/><stop offset="1" stop-color="#2ed0ff"/></linearGradient><linearGradient id="linear-gradient-5" x1="91.32" y1="526.38" x2="635" y2="526.38" gradientUnits="userSpaceOnUse"><stop offset="0" stop-color="#00b1ed"/><stop offset="1" stop-color="#0099bf"/></linearGradient><linearGradient id="linear-gradient-6" x1="208.04" y1="91.35" x2="-237.62" y2="534.29" gradientUnits="userSpaceOnUse"><stop offset="0" stop-color="#a8f3f8"/><stop offset="1" stop-color="#6ab2ff"/></linearGradient><linearGradient id="linear-gradient-7" x1="2142.22" y1="-102.24" x2="1184.22" y2="541.76" xlink:href="#linear-gradient-6"/></defs><title>Asset 1</title><g id="Layer_2" data-name="Layer 2"><g id="Layer_1-2" data-name="Layer 1"><path class="cls-1" d="M1759.26,1103.32c-529.7,329.48-1067.48,0-1067.48,0q40.5-11.49,83.86-28C1295.75,877.24,1597.49,980.48,1759.26,1103.32Z"/><path class="cls-2" d="M775.64,1075.37s737.48-60.47,1144.69,535.41l-.48-793.5S842.28,905.74,775.64,1075.37Z"/><path class="cls-3" d="M0,1046.87S579.61,1400.5,1068.24,740.64,1921,570.33,1921,570.33L1919.85,0H0Z"/><path class="cls-4" d="M1920,0l1,871.67c-4.19-11,24.7,341.11-161.74,231.65C1249.44,804,785.73,1090.25,673.6,1122.06,150.08,1270.83,0,799.61,0,799.61V0Z"/><path class="cls-5" d="M1181.91,172.5s-4-48.5-81-44S876.5,118.06,842.5,95.56s-53.5,0-63.5,26.5-47.5,13.5-89.5,22-42,26-42,26C668.92,170.06,746.35,174.17,1181.91,172.5Z"/><path class="cls-6" d="M635,564.89s-3.71-45-75.18-40.84-256-7.43-287.52-28.31-49.65,0-58.93,24.59-44.09,12.53-83.07,20.42-39,24.13-39,24.13C111.2,564.88,230.75,566.44,635,564.89Z"/><path class="cls-7" d="M545.78,0S529,195.66,320.76,107.78C29.89-15,144,253.43.11,541.3L0,0Z"/><path class="cls-8" d="M1596.94,0s48.58,69,162.32,69S1920.15,124.61,1920,311.45L1919.85,0Z"/></g></g></svg>