<svg xmlns="http://www.w3.org/2000/svg" xmlns:xlink="http://www.w3.org/1999/xlink" viewBox="0 0 329.66 298.15"><defs><style>.cls-1{fill:none;}.cls-2{fill:url(#linear-gradient);}.cls-3{clip-path:url(#clip-path);}.cls-4{fill:#fff;opacity:0.6;}.cls-5{fill:url(#linear-gradient-2);}.cls-6{clip-path:url(#clip-path-2);}.cls-7{fill:#6f8748;opacity:0.3;}.cls-8{fill:url(#linear-gradient-3);}.cls-9{fill:url(#linear-gradient-4);}.cls-10{fill:url(#linear-gradient-5);}.cls-11{fill:url(#linear-gradient-6);}.cls-12{fill:url(#linear-gradient-7);}.cls-13{fill:url(#linear-gradient-8);}.cls-14{fill:url(#linear-gradient-9);}.cls-15{fill:url(#linear-gradient-10);}.cls-16{fill:url(#linear-gradient-11);}.cls-17{fill:url(#linear-gradient-12);}.cls-18{fill:url(#linear-gradient-13);}.cls-19{fill:url(#linear-gradient-14);}</style><linearGradient id="linear-gradient" x1="323.12" y1="99.72" x2="74.14" y2="260.35" gradientTransform="translate(25.94 -30.77) rotate(8.69)" gradientUnits="userSpaceOnUse"><stop offset="0" stop-color="#ff8e6f"/><stop offset="1" stop-color="#d42c69"/></linearGradient><clipPath id="clip-path"><path class="cls-1" d="M327.64,175.51c-13.39,39.1-55.44-22.28-87.69,53.73-22.37,52.76-56.68-12.62-95.17,35.51-21.11,26.4-47.37,55.85-74.69,7.65s-44.95-131.54,11.08-121,57.38-44.7,134.87-16.69c65.71,23.74,42.13-18.56,89-7.2C331.73,134,331.82,163.3,327.64,175.51Z"/></clipPath><linearGradient id="linear-gradient-2" x1="-321.38" y1="623.7" x2="-41.88" y2="1058.6" gradientTransform="matrix(0.39, 0.92, -0.92, 0.39, 940.23, -15.27)" gradientUnits="userSpaceOnUse"><stop offset="0" stop-color="#6ee35d"/><stop offset="1" stop-color="#2e9eff"/></linearGradient><clipPath id="clip-path-2"><path class="cls-1" d="M250.69,32.66c6.85,40.76-59.37,6.82-51.51,89,5.45,57-55.85,15.9-66.77,76.55-6,33.27-15,71.68-62,42.31S-31.8,146.28,22.47,128.82,51.63,62.19,133.11,49.9c69.08-10.42,28.2-36.38,74.8-48.71C234.49-5.84,248.55,19.93,250.69,32.66Z"/></clipPath><linearGradient id="linear-gradient-3" x1="-87.11" y1="-134.31" x2="-64.12" y2="-134.31" gradientTransform="translate(53.88 214.43) rotate(55.24)" gradientUnits="userSpaceOnUse"><stop offset="0" stop-color="#f05f6f"/><stop offset="1" stop-color="#9f2c69"/></linearGradient><linearGradient id="linear-gradient-4" x1="1512.35" y1="-843.1" x2="1535.34" y2="-843.1" gradientTransform="translate(-1237.86 1183.19) rotate(-11.08)" xlink:href="#linear-gradient-3"/><linearGradient id="linear-gradient-5" x1="-214.67" y1="1317.25" x2="-191.68" y2="1317.25" gradientTransform="translate(1364.45 570.35) rotate(101.89)" xlink:href="#linear-gradient-3"/><linearGradient id="linear-gradient-6" x1="2163.58" y1="-610.33" x2="2186.57" y2="-610.33" gradientTransform="translate(-1299.67 1861.89) rotate(-36.76)" xlink:href="#linear-gradient-3"/><linearGradient id="linear-gradient-7" x1="162.37" y1="1967.18" x2="187.62" y2="1967.18" gradientTransform="matrix(-0.61, 0.79, -0.79, -0.61, 1767.52, 1166.39)" xlink:href="#linear-gradient-3"/><linearGradient id="linear-gradient-8" x1="144.99" y1="-459.3" x2="185.44" y2="-459.3" gradientTransform="translate(-328.4 343.22) rotate(39.48)" gradientUnits="userSpaceOnUse"><stop offset="0" stop-color="#079fd7"/><stop offset="1" stop-color="#0074bf"/></linearGradient><linearGradient id="linear-gradient-9" x1="13.48" y1="-86.47" x2="42.68" y2="-86.47" gradientTransform="matrix(0.64, 0.77, -0.77, 0.64, 55.23, 219.4)" xlink:href="#linear-gradient-3"/><linearGradient id="linear-gradient-10" x1="1500.97" y1="-733.62" x2="1530.17" y2="-733.62" gradientTransform="translate(-1150.98 1292.78) rotate(-15.87)" xlink:href="#linear-gradient-3"/><linearGradient id="linear-gradient-11" x1="-105.15" y1="1274.33" x2="-75.94" y2="1274.33" gradientTransform="translate(1390.97 464.49) rotate(97.09)" xlink:href="#linear-gradient-3"/><linearGradient id="linear-gradient-12" x1="2100.34" y1="-516.41" x2="2129.54" y2="-516.41" gradientTransform="translate(-1155.83 1974.27) rotate(-41.56)" xlink:href="#linear-gradient-3"/><linearGradient id="linear-gradient-13" x1="247.05" y1="1882.24" x2="279.12" y2="1882.24" gradientTransform="translate(1842.47 1024.75) rotate(122.64)" xlink:href="#linear-gradient-3"/><linearGradient id="linear-gradient-14" x1="223.19" y1="-376.19" x2="274.56" y2="-376.19" gradientTransform="translate(-314.94 379.7) rotate(34.69)" xlink:href="#linear-gradient-8"/></defs><title>header-leaves</title><g id="Layer_2" data-name="Layer 2"><g id="Layer_1-2" data-name="Layer 1"><path class="cls-2" d="M327.64,175.51c-13.39,39.1-55.44-22.28-87.69,53.73-22.37,52.76-56.68-12.62-95.17,35.51-21.11,26.4-47.37,55.85-74.69,7.65s-44.95-131.54,11.08-121,57.38-44.7,134.87-16.69c65.71,23.74,42.13-18.56,89-7.2C331.73,134,331.82,163.3,327.64,175.51Z"/><g class="cls-3"><path class="cls-4" d="M152.29,257.6l.39-.06-.26-1.58L152,256c-15,2.49-27.64-3.67-37.58-18.3a82.58,82.58,0,0,1-10.33-22.24c19-4.51,39.25-9.74,59.54-15.24,10.68,24.94,31.3,30.71,46.78,31.13a90.69,90.69,0,0,0,31.49-5.21l.38-.15-.59-1.49-.37.15a88.57,88.57,0,0,1-30.87,5.09c-15-.4-34.88-6-45.26-29.94,24.62-6.69,49.21-13.74,71.57-20.33,7.5,19.63,27.31,16.42,27.51,16.39l.4-.07-.28-1.58-.39.07c-.19,0-18.64,2.95-25.7-15.27,25.08-7.4,47.24-14.19,63.29-19.19,5.22,16.08,25.8,16.47,26,16.48h.4l0-1.6h-.4c-.2,0-19.63-.4-24.49-15.35,15.34-4.77,24.72-7.79,25.13-7.92l.38-.13-.51-1.52-.38.12c-1.3.42-22.55,7.25-53.43,16.66-2.67-9.91-1.76-18.17,2.74-24.56,8.65-12.31,27.79-13.72,28-13.74l.4,0-.11-1.61-.4,0c-.2,0-20.11,1.5-29.18,14.41a24.94,24.94,0,0,0-4.41,12.29A38.84,38.84,0,0,0,272.82,167c-14.66,4.47-31.41,9.48-49.17,14.66-10.7,3.12-22.23,6.43-34.21,9.79-6.38-16.44-6.6-29.79-.62-39.68,8.53-14.14,27.12-16.32,27.31-16.34l.4,0-.17-1.6-.4.05c-.2,0-19.53,2.22-28.51,17.09a32.24,32.24,0,0,0-4.4,13.84c-.72,7.84.91,17,4.84,27.12-21.08,5.9-43.47,11.93-65.15,17.36-3.64-16.94-5.31-40.67,6.72-59.24,7.27-11.22,16.26-15.3,16.35-15.34l.37-.16-.65-1.47-.37.16c-.09.05-9.5,4.31-17,15.89-5.19,8-8.33,17.59-9.33,28.53a106.84,106.84,0,0,0,2.38,32c-22.17,5.53-43.54,10.4-61.91,13.8-1.15-27.62,7.86-45.24,15.68-55.18,8.54-10.85,17.52-15.15,17.61-15.19l.37-.17-.68-1.45-.37.16c-.09.05-9.35,4.43-18.16,15.62-6.15,7.8-13.86,21.39-15.73,41.85a109.1,109.1,0,0,0-.31,14.65c-2.45.44-4.85.87-7.18,1.26l-.4.06.27,1.59.39-.07c15.11-2.53,32.8-6.27,51.78-10.75a85.25,85.25,0,0,0,10.56,22.76C123.29,253.6,136.84,260.16,152.29,257.6Z"/></g><path class="cls-5" d="M250.69,32.66c6.85,40.76-59.37,6.82-51.51,89,5.45,57-55.85,15.9-66.77,76.55-6,33.27-15,71.68-62,42.31S-31.8,146.28,22.47,128.82,51.63,62.19,133.11,49.9c69.08-10.42,28.2-36.38,74.8-48.71C234.49-5.84,248.55,19.93,250.69,32.66Z"/><g class="cls-6"><path class="cls-7" d="M135.61,188.36l.32-.24-1-1.27-.32.25c-12,9.32-26,9.93-41.75,1.8a82.71,82.71,0,0,1-19.68-14.63c14.55-13,29.88-27.26,45.09-41.76,21.28,16.84,42.15,12.09,56,5.09A90.75,90.75,0,0,0,199.45,118l.26-.31-1.23-1-.25.31a88.23,88.23,0,0,1-24.71,19.18c-13.36,6.77-33.51,11.37-54.06-4.77,18.46-17.6,36.72-35.52,53.24-52,16,13.69,31.84,1.43,32,1.3l.31-.25-1-1.25-.32.24c-.15.12-15,11.48-29.86-1.18,18.52-18.45,34.77-35,46.51-47,12.24,11.66,30.53,2.2,30.71,2.1l.36-.19-.76-1.42-.35.19c-.18.09-17.45,9-28.84-1.83,11.21-11.51,18-18.63,18.32-18.94l.27-.29-1.17-1.1-.27.29c-1,1-16.38,17.11-39.05,40.09-7.06-7.43-10.2-15.13-9.29-22.89C192,12.34,208.18,2,208.34,1.87l.34-.21L207.82.3l-.34.21c-.17.11-17,10.9-18.8,26.58a25.06,25.06,0,0,0,2,12.9,39.18,39.18,0,0,0,7.78,11.33c-10.76,10.9-23.09,23.29-36.25,36.31-7.92,7.84-16.48,16.24-25.41,24.89-13.44-11.41-20-23-19.45-34.59.77-16.49,16.08-27.26,16.23-27.37l.33-.23L133,49l-.33.23c-.16.11-16.11,11.26-16.92,28.61a32,32,0,0,0,2.72,14.26c3.1,7.24,8.88,14.48,17.17,21.54-15.72,15.23-32.53,31.2-49,46.3-11.27-13.16-24-33.24-22.31-55.29,1-13.33,7-21.2,7.07-21.27l.25-.32-1.27-1-.25.32c-.06.08-6.3,8.32-7.4,22.08C62,114,63.76,123.91,68.09,134a106.82,106.82,0,0,0,17.34,27c-16.86,15.42-33.33,29.88-47.86,41.62-14.16-23.74-14.63-43.52-12.49-56,2.33-13.61,8.18-21.67,8.24-21.75l.24-.32-1.29-1L32,124c-.06.09-6.11,8.35-8.53,22.39-1.69,9.78-2,25.41,6.11,44.29a109.39,109.39,0,0,0,6.7,13c-1.94,1.56-3.85,3.08-5.72,4.53l-.31.25,1,1.27.32-.25C43.66,200,57.43,188.33,72,175.34a85,85,0,0,0,20.12,15C108.2,198.65,123.24,198,135.61,188.36Z"/></g><path class="cls-8" d="M136.49,78.94c10.91-9.48-7.38-32.63-33.13-2.23a6.63,6.63,0,0,0-1.56,4.59v0C108.66,83.13,127.28,87,136.49,78.94Z"/><path class="cls-9" d="M104.79,50.6c-4.39-14.09-34.07-6-14.19,31.75l.05,0a3.16,3.16,0,0,0,3.89-1C99.48,74.72,108.06,61.09,104.79,50.6Z"/><path class="cls-10" d="M125.16,113.42c14.69,1.46,18.84-29-23.69-25.44l0,0a3.14,3.14,0,0,0-.62,4C105,99.12,114.22,112.34,125.16,113.42Z"/><path class="cls-11" d="M80.44,56c-10.07-10.8-33.31,9.33,1,34.75h.06a3.15,3.15,0,0,0,3.08-2.56C86.11,80,87.93,64,80.44,56Z"/><path class="cls-12" d="M100.1,126c12.62,7.64,31.36-24.38-10.36-33.16-.79-.17-2.57,1-2.37,3.31C88.1,104.39,90.7,120.26,100.1,126Z"/><path class="cls-13" d="M92.07,89.73c.67-.13,1.36-.18,2-.25s1.37-.09,2.06-.07a27,27,0,0,1,4.11.32,35.32,35.32,0,0,1,8,2.25,38.92,38.92,0,0,1,7.35,3.91l.27-.35a40.22,40.22,0,0,0-7.36-4.18,35.59,35.59,0,0,0-8.1-2.52,27.47,27.47,0,0,0-4.25-.45c-.71,0-1.42,0-2.14,0s-1.43.09-2.14.2a20.49,20.49,0,0,0-3.13.67c4.15-2.91,8.36-5.73,12.68-8.37,1.19-.73,2.4-1.44,3.59-2.16s2.42-1.39,3.65-2.06c2.44-1.34,4.93-2.63,7.47-3.73l-.2-.51c-2.62,1.07-5.12,2.31-7.61,3.62-1.24.65-2.46,1.34-3.69,2s-2.44,1.38-3.65,2.1c-4.17,2.45-8.25,5.07-12.26,7.77l.54-.75a28,28,0,0,0,3.22-6.25A35,35,0,0,0,94.59,67.2l-.44,0a33.9,33.9,0,0,1-.57,6.82,32.92,32.92,0,0,1-1.91,6.56,26.82,26.82,0,0,1-3.31,5.92A25.41,25.41,0,0,1,84.24,91c-1.79,1.24-3.56,2.51-5.32,3.79a15.44,15.44,0,0,0,1.23-2.56,15.77,15.77,0,0,0,.78-3,17.65,17.65,0,0,0-.21-6.11,20.09,20.09,0,0,0-2.09-5.71l-.38.22a19.49,19.49,0,0,1,1.81,5.61,16.84,16.84,0,0,1,0,5.84,15.87,15.87,0,0,1-.83,2.78,14.83,14.83,0,0,1-1.37,2.54A18,18,0,0,1,74,98.47l-.76.56c-2.23,1.7-4.44,3.43-6.66,5.14L60,109.44l1.12,1.35,6.44-5.37c2.18-1.74,4.34-3.51,6.54-5.23l2.08-1.61a31,31,0,0,1,4.73-1.86,17.27,17.27,0,0,1,5.69-.93,12.23,12.23,0,0,1,5.55,1.42,11.86,11.86,0,0,1,4.29,3.85l.38-.22a12.44,12.44,0,0,0-4.34-4.22,13,13,0,0,0-5.84-1.73,18,18,0,0,0-6.07.74l-.91.29c1.67-1.26,3.34-2.5,5-3.73A23.47,23.47,0,0,1,92.07,89.73Z"/><path class="cls-14" d="M159.59,188.41c12.8-13.16-12.81-40.52-42.18.7a8.42,8.42,0,0,0-1.48,6v.06C124.81,196.67,148.78,199.53,159.59,188.41Z"/><path class="cls-15" d="M116.45,155.91c-7.06-17.37-43.76-4-14.58,41.69l.06,0a4,4,0,0,0,4.82-1.65C112.29,187,121.7,168.84,116.45,155.91Z"/><path class="cls-16" d="M148.91,233.26c18.75.28,20.77-38.72-32.69-29.69l0,0a4,4,0,0,0-.36,5.09C121.9,217.3,135,233.05,148.91,233.26Z"/><path class="cls-17" d="M86.2,165.31C72.32,152.72,45,180.66,91.13,209.2h.06a4,4,0,0,0,3.64-3.58C95.94,195.14,96.54,174.69,86.2,165.31Z"/><path class="cls-18" d="M118.52,251.79c16.78,8.33,37.1-34.19-16.63-40.88-1-.12-3.15,1.51-2.65,4.45C101,225.76,106,245.58,118.52,251.79Z"/><path class="cls-19" d="M104.51,206.79c.84-.24,1.7-.37,2.55-.54s1.73-.25,2.6-.31a34,34,0,0,1,5.24,0,44.68,44.68,0,0,1,10.35,2,50.14,50.14,0,0,1,9.73,4.17l.29-.47a51,51,0,0,0-9.75-4.51A45.38,45.38,0,0,0,115,204.77a35.12,35.12,0,0,0-5.43-.12c-.9,0-1.8.14-2.71.24s-1.8.26-2.68.49a23.61,23.61,0,0,0-3.89,1.18c4.94-4.12,10-8.15,15.16-11.95,1.42-1.05,2.87-2.07,4.31-3.11s2.91-2,4.4-3c2.94-2,6-3.87,9.06-5.52l-.31-.63c-3.2,1.63-6.24,3.48-9.24,5.4-1.51,1-3,2-4.47,2.93s-2.94,2-4.39,3c-5,3.55-9.9,7.29-14.7,11.14.21-.33.41-.66.6-1a35.8,35.8,0,0,0,3.43-8.25,43.66,43.66,0,0,0,1.46-8.77,43,43,0,0,0-.3-8.85l-.55.09a43.63,43.63,0,0,1-1.72,17.2,33.77,33.77,0,0,1-3.56,7.83,32.46,32.46,0,0,1-4.73,6.12c-2.14,1.76-4.24,3.55-6.34,5.36a19.67,19.67,0,0,0,1.29-3.37,20.44,20.44,0,0,0,.66-3.88,22.3,22.3,0,0,0-.91-7.72,25.45,25.45,0,0,0-3.25-7l-.46.31a25,25,0,0,1,2.89,6.91,21.2,21.2,0,0,1,.58,7.39,19.13,19.13,0,0,1-.75,3.61A19.77,19.77,0,0,1,87,214.23a23,23,0,0,1-4.48,5.54l-.9.8c-2.65,2.38-5.25,4.8-7.88,7.21L66,235.14l1.57,1.59,7.57-7.48c2.58-2.44,5.13-4.9,7.72-7.32l2.47-2.25a39.41,39.41,0,0,1,5.79-2.86,21.49,21.49,0,0,1,7.1-1.77,15.37,15.37,0,0,1,7.18,1.2,15.05,15.05,0,0,1,5.84,4.41l.46-.31a15.81,15.81,0,0,0-5.94-4.88,16.5,16.5,0,0,0-7.58-1.57,22.91,22.91,0,0,0-7.6,1.57l-1.12.47c2-1.77,4-3.52,6-5.25A29.57,29.57,0,0,1,104.51,206.79Z"/></g></g></svg>