<svg xmlns="http://www.w3.org/2000/svg" xmlns:xlink="http://www.w3.org/1999/xlink" viewBox="0 0 328.81 540.16"><defs><style>.cls-1{fill:url(#linear-gradient);}</style><linearGradient id="linear-gradient" x1="20.34" y1="270.08" x2="349.14" y2="270.08" gradientTransform="translate(-20.34)" gradientUnits="userSpaceOnUse"><stop offset="0" stop-color="#f05f6f"/><stop offset="1" stop-color="#9f2c69"/></linearGradient></defs><title>Asset 5</title><g id="Layer_2" data-name="Layer 2"><g id="Layer_1-2" data-name="Layer 1"><path class="cls-1" d="M203.29,470.52l-.45-.27a141.3,141.3,0,0,1-32-27.36,114,114,0,0,1-25-49.63,117.12,117.12,0,0,1-2.74-28c.07-2.72.23-5.44.44-8.16,10.54,1.24,54.87,5.06,72.24-15.73,19.34-23.15-28.38-70.3-71.23,6.55q.77-5.42,1.91-10.81c.45-2.32,1.13-4.61,1.69-6.92s1.15-4.6,1.82-7c1.25-4.72,2.64-9.39,3.76-14.14s2.37-9.47,3.37-14.26c.51-2.38,1.07-4.76,1.55-7.16l1.36-7.2.69-3.6.57-3.63,1.15-7.24.92-7.29.45-3.64.33-3.66a230.71,230.71,0,0,0,1.06-29.4c-.08-4-.31-8-.66-11.92,12.21-2.5,52.94-12.53,62.79-36.74,11.13-27.35-45.91-57-64.68,22.56a142.25,142.25,0,0,0-9.33-31.46,131.33,131.33,0,0,0-14.72-25.59,148.53,148.53,0,0,0-13.9-16.23c6.82-5.51,42.45-35.77,39.42-63.51-3.32-30.42-72.24-28.23-43.52,59.48-.57-.54-1.13-1.08-1.71-1.61-14-12.87-45.61-33.34-45.61-33.34S67.8,18.6,35.26,2.33s-73.2,56.93,35.25,84.05c0,0,32,20.46,45.69,33.43,1.73,1.64,3.43,3.32,5.08,5-84.14-33.13-90.69,34.72-60.74,40,27,4.81,59-27.5,65.68-34.69a142.11,142.11,0,0,1,8.88,11.17A127.21,127.21,0,0,1,149,166.28a142.16,142.16,0,0,1,10,41.08c-84.73-33.71-91.39,34.45-61.37,39.79,23.59,4.19,50.94-19.92,62-30.89q.14,2.94.16,5.88a227.65,227.65,0,0,1-1.44,28.69l-.37,3.58-.5,3.57-1,7.13-1.22,7.11-.62,3.55-.72,3.53-1.45,7.07c-.5,2.36-1.08,4.69-1.62,7-1.05,4.7-2.29,9.35-3.52,14s-2.6,9.28-3.91,13.92c-.67,2.29-1.31,4.69-1.95,7.08s-1.35,4.76-1.86,7.18A165.14,165.14,0,0,0,136.65,352c-66.42-60.17-96.51.6-70.5,16.22,20.9,12.55,55.89-.89,69.64-7.08-.08,1.3-.15,2.61-.21,3.91a125.18,125.18,0,0,0,2.52,29.82,122.29,122.29,0,0,0,26.1,53.58,147.22,147.22,0,0,0,21.48,20.88c2.12,1.7,4.3,3.32,6.51,4.89-82,.2-66,62.58-36.78,57.91,24.08-3.85,42.2-36.67,48.74-50.25l.15.09c2.23,1.25,122,57,124.51,58.15V529.22c-1.42-.64-116.83-53.76-118.37-54.57,14.14-5.29,48.42-20.35,54.45-43.95C272.44,401.11,207.43,379,203.29,470.52Z"/></g></g></svg>