<svg xmlns="http://www.w3.org/2000/svg" xmlns:xlink="http://www.w3.org/1999/xlink" viewBox="0 0 285.33 172.66"><defs><style>.cls-1{fill:none;}.cls-2{fill:url(#linear-gradient);}.cls-3{clip-path:url(#clip-path);}.cls-4{fill:#fff;opacity:0.6;}</style><linearGradient id="linear-gradient" x1="278.79" y1="-25.77" x2="29.81" y2="134.86" gradientTransform="translate(6.48 -25.51) rotate(8.69)" gradientUnits="userSpaceOnUse"><stop offset="0" stop-color="#ff8e6f"/><stop offset="1" stop-color="#d42c69"/></linearGradient><clipPath id="clip-path"><path class="cls-1" d="M283.31,50c-13.39,39.1-55.44-22.28-87.68,53.73-22.38,52.75-56.69-12.62-95.18,35.51-21.11,26.4-47.37,55.85-74.68,7.65s-45-131.55,11.07-121,57.38-44.7,134.87-16.7c65.71,23.75,42.13-18.55,89-7.19C287.4,8.46,287.49,37.81,283.31,50Z"/></clipPath></defs><title>Asset 6</title><g id="Layer_2" data-name="Layer 2"><g id="Layer_1-2" data-name="Layer 1"><path class="cls-2" d="M283.31,50c-13.39,39.1-55.44-22.28-87.68,53.73-22.38,52.75-56.69-12.62-95.18,35.51-21.11,26.4-47.37,55.85-74.68,7.65s-45-131.55,11.07-121,57.38-44.7,134.87-16.7c65.71,23.75,42.13-18.55,89-7.19C287.4,8.46,287.49,37.81,283.31,50Z"/><g class="cls-3"><path class="cls-4" d="M108,132.11l.4-.06-.27-1.59-.39.07c-15,2.48-27.64-3.68-37.58-18.3A82.58,82.58,0,0,1,59.79,90c19-4.51,39.26-9.75,59.54-15.24,10.69,24.94,31.3,30.7,46.78,31.12a90.82,90.82,0,0,0,31.49-5.2l.38-.15-.59-1.5-.37.15a88.18,88.18,0,0,1-30.87,5.1c-15-.41-34.87-6-45.25-29.95,24.61-6.68,49.21-13.73,71.56-20.32C200,73.63,219.77,70.42,220,70.38l.4-.06-.28-1.58-.39.06c-.19,0-18.64,3-25.7-15.26,25.08-7.4,47.24-14.2,63.29-19.19,5.22,16.08,25.8,16.47,26,16.47h.4l0-1.61h-.4c-.2,0-19.63-.41-24.49-15.35,15.34-4.78,24.72-7.79,25.13-7.93l.38-.12-.51-1.52-.38.12c-1.3.42-22.55,7.24-53.43,16.65-2.66-9.9-1.75-18.16,2.74-24.56,8.65-12.3,27.79-13.72,28-13.73l.4,0L261,1.15l-.4,0c-.2,0-20.11,1.5-29.18,14.41A25,25,0,0,0,227,27.87a39.1,39.1,0,0,0,1.45,13.67C213.83,46,197.08,51,179.32,56.2c-10.7,3.12-22.23,6.43-34.21,9.79-6.38-16.44-6.6-29.79-.62-39.68C153,12.17,171.61,10,171.8,10l.4,0L172,8.33l-.4,0c-.19,0-19.53,2.23-28.51,17.1a32.19,32.19,0,0,0-4.4,13.84c-.72,7.84.91,17,4.84,27.11-21.07,5.9-43.46,11.94-65.15,17.37-3.64-16.94-5.31-40.68,6.72-59.24,7.27-11.23,16.26-15.3,16.35-15.34l.37-.16-.65-1.47-.36.16c-.1,0-9.51,4.31-17,15.89-5.19,8-8.33,17.59-9.33,28.53a107.08,107.08,0,0,0,2.38,32C54.69,89.7,33.32,94.57,15,98,13.81,70.35,22.82,52.74,30.63,42.8c8.54-10.86,17.52-15.15,17.61-15.19l.37-.17L47.93,26l-.37.17c-.09,0-9.35,4.42-18.16,15.62-6.14,7.8-13.86,21.39-15.73,41.85a109,109,0,0,0-.31,14.64c-2.45.45-4.85.87-7.18,1.26l-.4.07.27,1.58.39-.06c15.12-2.53,32.8-6.27,51.79-10.75a84.91,84.91,0,0,0,10.55,22.75C79,128.1,92.51,134.67,108,132.11Z"/></g></g></g></svg>