<svg xmlns="http://www.w3.org/2000/svg" xmlns:xlink="http://www.w3.org/1999/xlink" viewBox="0 0 97.52 104.29"><defs><style>.cls-1{fill:url(#linear-gradient);}.cls-2{fill:url(#linear-gradient-2);}.cls-3{fill:url(#linear-gradient-3);}.cls-4{fill:url(#linear-gradient-4);}.cls-5{fill:url(#linear-gradient-5);}.cls-6{fill:url(#linear-gradient-6);}</style><linearGradient id="linear-gradient" x1="-51.97" y1="-235.05" x2="-22.77" y2="-235.05" gradientTransform="matrix(0.64, 0.77, -0.77, 0.64, -83.09, 215.9)" gradientUnits="userSpaceOnUse"><stop offset="0" stop-color="#f05f6f"/><stop offset="1" stop-color="#9f2c69"/></linearGradient><linearGradient id="linear-gradient-2" x1="1435.52" y1="-882.2" x2="1464.72" y2="-882.2" gradientTransform="translate(-1112.84 1269.21) rotate(-15.87)" xlink:href="#linear-gradient"/><linearGradient id="linear-gradient-3" x1="-170.6" y1="1125.75" x2="-141.39" y2="1125.75" gradientTransform="translate(1170 362.51) rotate(97.09)" xlink:href="#linear-gradient"/><linearGradient id="linear-gradient-4" x1="2034.89" y1="-664.99" x2="2064.09" y2="-664.99" gradientTransform="translate(-1073.73 1893.45) rotate(-41.56)" xlink:href="#linear-gradient"/><linearGradient id="linear-gradient-5" x1="181.6" y1="1733.66" x2="213.67" y2="1733.66" gradientTransform="translate(1616.61 851.14) rotate(122.64)" xlink:href="#linear-gradient"/><linearGradient id="linear-gradient-6" x1="157.74" y1="-524.76" x2="209.12" y2="-524.76" gradientTransform="translate(-411.12 390.54) rotate(34.69)" gradientUnits="userSpaceOnUse"><stop offset="0" stop-color="#079fd7"/><stop offset="1" stop-color="#0074bf"/></linearGradient></defs><title>Asset 8</title><g id="Layer_2" data-name="Layer 2"><g id="Layer_1-2" data-name="Layer 1"><path class="cls-1" d="M94.14,39.83c12.8-13.16-12.81-40.52-42.18.7a8.42,8.42,0,0,0-1.48,6v.06C59.36,48.09,83.33,51,94.14,39.83Z"/><path class="cls-2" d="M51,7.33C43.94-10,7.24,3.32,36.42,49l.06,0a4,4,0,0,0,4.82-1.65C46.84,38.42,56.25,20.26,51,7.33Z"/><path class="cls-3" d="M83.46,84.68C102.21,85,104.23,46,50.77,55l-.05,0a4,4,0,0,0-.36,5.09C56.45,68.72,69.5,84.47,83.46,84.68Z"/><path class="cls-4" d="M20.75,16.73C6.87,4.14-20.42,32.08,25.68,60.62h.07A4,4,0,0,0,29.38,57C30.49,46.56,31.09,26.11,20.75,16.73Z"/><path class="cls-5" d="M53.07,103.21C69.85,111.54,90.17,69,36.44,62.34c-1-.13-3.15,1.5-2.65,4.45C35.59,77.18,40.57,97,53.07,103.21Z"/><path class="cls-6" d="M39.06,58.21c.84-.24,1.7-.37,2.55-.54s1.73-.25,2.6-.3a32.86,32.86,0,0,1,5.25,0,44.69,44.69,0,0,1,10.34,2,50.14,50.14,0,0,1,9.73,4.17l.29-.47a51,51,0,0,0-9.75-4.51,45.9,45.9,0,0,0-10.52-2.33,35.12,35.12,0,0,0-5.43-.12c-.9,0-1.8.14-2.71.24s-1.8.26-2.68.49A23.61,23.61,0,0,0,34.84,58C39.78,53.86,44.81,49.84,50,46,51.43,45,52.87,44,54.31,42.92s2.91-2,4.4-3c2.94-2,6-3.86,9.06-5.52l-.31-.63c-3.2,1.63-6.24,3.48-9.24,5.4-1.51,1-3,2-4.47,2.93s-2.93,2-4.39,3c-5,3.55-9.9,7.29-14.7,11.14.21-.33.41-.66.6-1A35.8,35.8,0,0,0,38.69,47a43.57,43.57,0,0,0,1.46-8.76,43,43,0,0,0-.3-8.86l-.55.09a42.16,42.16,0,0,1,0,8.7,41.61,41.61,0,0,1-1.72,8.5A33.77,33.77,0,0,1,34,54.54a32.06,32.06,0,0,1-4.73,6.12Q26.1,63.3,23,66a19.67,19.67,0,0,0,1.29-3.37,20.44,20.44,0,0,0,.66-3.88A22.24,22.24,0,0,0,24,51.06a25.37,25.37,0,0,0-3.25-7l-.46.31a25.12,25.12,0,0,1,2.89,6.91,21.47,21.47,0,0,1,.59,7.39A20,20,0,0,1,23,62.28a19.77,19.77,0,0,1-1.47,3.37,23,23,0,0,1-4.48,5.54l-.9.8C13.5,74.37,10.9,76.8,8.27,79.2L.53,86.56,2.1,88.15l7.57-7.48c2.58-2.44,5.13-4.9,7.72-7.32l2.47-2.25a39.41,39.41,0,0,1,5.79-2.86,21.48,21.48,0,0,1,7.11-1.77,15.35,15.35,0,0,1,7.17,1.2,15.05,15.05,0,0,1,5.84,4.41l.46-.31a15.81,15.81,0,0,0-5.94-4.88,16.5,16.5,0,0,0-7.58-1.57,22.67,22.67,0,0,0-7.6,1.58c-.38.14-.75.3-1.12.46,2-1.77,4-3.52,6-5.25A29.57,29.57,0,0,1,39.06,58.21Z"/></g></g></svg>