<svg xmlns="http://www.w3.org/2000/svg" xmlns:xlink="http://www.w3.org/1999/xlink" viewBox="0 0 576.74 396.99"><defs><style>.cls-1{fill:none;}.cls-2{fill:url(#linear-gradient);}.cls-3{clip-path:url(#clip-path);}.cls-4{opacity:0.5;fill:url(#linear-gradient-2);}.cls-5{opacity:0.4;fill:url(#linear-gradient-3);}</style><linearGradient id="linear-gradient" x1="289.69" y1="99.11" x2="284.06" y2="506.8" gradientUnits="userSpaceOnUse"><stop offset="0" stop-color="#f05f6f"/><stop offset="1" stop-color="#9f2c69"/></linearGradient><clipPath id="clip-path"><polygon class="cls-1" points="571.15 396.99 0 396.99 113.67 148.99 449.97 148.99 571.15 396.99"/></clipPath><linearGradient id="linear-gradient-2" x1="421.22" y1="76.88" x2="199.22" y2="279.88" xlink:href="#linear-gradient"/><linearGradient id="linear-gradient-3" x1="355.28" y1="11.66" x2="228.01" y2="173.52" xlink:href="#linear-gradient"/></defs><title>Asset 2</title><g id="Layer_2" data-name="Layer 2"><g id="Layer_1-2" data-name="Layer 1"><polygon class="cls-2" points="571.15 396.99 0 396.99 113.67 148.99 449.97 148.99 571.15 396.99"/><g class="cls-3"><path class="cls-4" d="M576.7,150.1c2.19,62.61-87,160.64-262.45,166.78S51.52,261.19,49.33,198.57,93.9,84.45,269.32,78.31,574.51,87.48,576.7,150.1Z"/><path class="cls-5" d="M536.92,73.13c0,62.64-91.88,163.12-236.25,181.87C126.61,277.61,58.79,162,58.79,99.37S84.83,0,260.35,0,536.92,10.48,536.92,73.13Z"/></g></g></g></svg>