<svg xmlns="http://www.w3.org/2000/svg" xmlns:xlink="http://www.w3.org/1999/xlink" viewBox="0 0 1286.39 1213.75"><defs><style>.cls-1{fill:none;}.cls-2{clip-path:url(#clip-path);}.cls-3{opacity:0.7;fill:url(#linear-gradient);}.cls-4{clip-path:url(#clip-path-2);}.cls-5{fill:url(#linear-gradient-2);}.cls-6{clip-path:url(#clip-path-3);}.cls-7{opacity:0.5;fill:url(#linear-gradient-3);}.cls-8{opacity:0.4;fill:url(#linear-gradient-4);}</style><clipPath id="clip-path" transform="translate(-495.98)"><rect class="cls-1" y="162.25" width="1637.87" height="1065"/></clipPath><linearGradient id="linear-gradient" x1="981.23" y1="270.93" x2="2277.23" y2="2122.93" gradientUnits="userSpaceOnUse"><stop offset="0" stop-color="#a8f3f8"/><stop offset="1" stop-color="#6ab2ff"/></linearGradient><clipPath id="clip-path-2" transform="translate(-495.98)"><path class="cls-1" d="M504.46,124.87s21.59,95.44,98.86,142S846.47,395.29,827.15,546.41,703.3,753.2,718.08,823.65s59.08,48.86,119.3,132.94,256.13,228.8,514.06,202.67,323.34-143.59,364.25-204.94,106.8-507.9,34.08-514.72-309,155.67-434,46.59S1201,251,1071.44,237.35,816.93,339.61,764.66,124.87,445.38,14.65,504.46,124.87Z"/></clipPath><linearGradient id="linear-gradient-2" x1="647.15" y1="916.47" x2="641.53" y2="1323.35" gradientUnits="userSpaceOnUse"><stop offset="0" stop-color="#f05f6f"/><stop offset="1" stop-color="#9f2c69"/></linearGradient><clipPath id="clip-path-3" transform="translate(-495.98)"><polygon class="cls-1" points="1424.02 1213.75 854.02 1213.75 967.46 966.25 1303.09 966.25 1424.02 1213.75"/></clipPath><linearGradient id="linear-gradient-3" x1="1274.66" y1="893.78" x2="1052.66" y2="1096.78" xlink:href="#linear-gradient-2"/><linearGradient id="linear-gradient-4" x1="1208.73" y1="828.56" x2="1081.45" y2="990.42" xlink:href="#linear-gradient-2"/></defs><title>Asset 1</title><g id="Layer_2" data-name="Layer 2"><g id="Layer_1-2" data-name="Layer 1"><g class="cls-2"><path class="cls-3" d="M504.46,124.87C439,373.25,855.9,321.51,827.15,546.41,807.84,697.53,708.54,697,707,774.25c-2,102,70.14,98.26,130.36,182.34s256.13,228.8,514.06,202.67,323.34-143.59,364.25-204.94,106.8-507.9,34.08-514.72-309,155.67-434,46.59S1201,251,1071.44,237.35,816.93,339.61,764.66,124.87,445.38,14.65,504.46,124.87Z" transform="translate(-495.98)"/><g class="cls-4"><polygon class="cls-5" points="928.04 1213.75 358.04 1213.75 471.48 966.25 807.11 966.25 928.04 1213.75"/><g class="cls-6"><path class="cls-7" d="M1430.15,967c2.19,62.61-87,160.64-262.45,166.78S905,1078.09,902.77,1015.48s44.58-114.13,220-120.27S1428,904.39,1430.15,967Z" transform="translate(-495.98)"/><path class="cls-8" d="M1390.36,890c0,62.65-91.87,163.12-236.25,181.87-174.06,22.61-241.87-93-241.87-155.62s26-99.38,201.56-99.38S1390.36,827.38,1390.36,890Z" transform="translate(-495.98)"/></g></g></g></g></g></svg>