<svg xmlns="http://www.w3.org/2000/svg" xmlns:xlink="http://www.w3.org/1999/xlink" viewBox="0 0 521.07 575.25"><defs><style>.cls-1{fill:none;}.cls-2{fill:url(#linear-gradient);}.cls-3{fill:url(#linear-gradient-2);}.cls-12,.cls-13,.cls-20,.cls-21,.cls-23,.cls-28,.cls-37,.cls-4,.cls-8,.cls-9{opacity:0.2;}.cls-5{clip-path:url(#clip-path);}.cls-6{fill:url(#linear-gradient-3);}.cls-7{clip-path:url(#clip-path-2);}.cls-8{fill:url(#linear-gradient-4);}.cls-9{fill:url(#linear-gradient-5);}.cls-10{fill:url(#linear-gradient-6);}.cls-11{clip-path:url(#clip-path-3);}.cls-12{fill:url(#linear-gradient-7);}.cls-13{fill:url(#linear-gradient-8);}.cls-14{fill:url(#linear-gradient-9);}.cls-15{fill:url(#linear-gradient-10);}.cls-16{clip-path:url(#clip-path-4);}.cls-17{fill:url(#linear-gradient-11);}.cls-18{fill:url(#linear-gradient-12);}.cls-19{clip-path:url(#clip-path-5);}.cls-20{fill:url(#linear-gradient-13);}.cls-21{fill:url(#linear-gradient-14);}.cls-22,.cls-24,.cls-29,.cls-30{opacity:0.4;}.cls-22{fill:url(#linear-gradient-15);}.cls-23{fill:url(#linear-gradient-16);}.cls-24{fill:url(#linear-gradient-17);}.cls-25{fill:url(#linear-gradient-18);}.cls-26{fill:url(#linear-gradient-19);}.cls-27{fill:url(#linear-gradient-20);}.cls-28{fill:url(#linear-gradient-21);}.cls-29{fill:url(#linear-gradient-22);}.cls-31{fill:url(#linear-gradient-23);}.cls-32{fill:url(#linear-gradient-24);}.cls-33{fill:url(#linear-gradient-25);}.cls-34{fill:url(#linear-gradient-26);}.cls-35{fill:url(#linear-gradient-27);}.cls-36{clip-path:url(#clip-path-7);}.cls-37{fill:url(#linear-gradient-28);}.cls-38{clip-path:url(#clip-path-8);}.cls-39{fill:url(#linear-gradient-29);}.cls-40{clip-path:url(#clip-path-9);}.cls-41{fill:url(#linear-gradient-31);}.cls-42{clip-path:url(#clip-path-10);}.cls-43{fill:url(#linear-gradient-32);}.cls-44{clip-path:url(#clip-path-11);}.cls-45{fill:url(#linear-gradient-33);}</style><linearGradient id="linear-gradient" x1="64.74" y1="295.62" x2="254.35" y2="295.62" gradientUnits="userSpaceOnUse"><stop offset="0" stop-color="#ff826a"/><stop offset="1" stop-color="#ffcbaa"/></linearGradient><linearGradient id="linear-gradient-2" x1="266.54" y1="0.96" x2="263.25" y2="346.57" gradientUnits="userSpaceOnUse"><stop offset="0" stop-color="#00b1ed"/><stop offset="1" stop-color="#0099bf"/></linearGradient><clipPath id="clip-path"><path class="cls-1" d="M183.5,38.05c-15,45.05-15,86.76-58.4,105.12s-46.72,26.69-48.39,40,6.68,31.71-31.7,45S-6.72,321.7,81.72,335.05s63.41,10,95.11,6.68S248.58,325,276.94,330.05s143.5,10,155.18,10,76.76-6.67,80.09-48.39-65.07-35-70.08-68.41,11.68-63.41-40-91.77-64.65-25.15-81.76-86.77C303.64-15.35,200.25-12.21,183.5,38.05Z"/></clipPath><linearGradient id="linear-gradient-3" x1="268.99" y1="63.37" x2="266.03" y2="374.03" gradientUnits="userSpaceOnUse"><stop offset="0" stop-color="#0077ed"/><stop offset="1" stop-color="#004def"/></linearGradient><clipPath id="clip-path-2"><path class="cls-1" d="M512.21,291.67c-3.33,41.72-68.41,48.39-80.09,48.39s-126.81-5-155.18-10-68.41,8.34-100.11,11.68-6.68,6.67-95.11-6.68S6.63,241.61,45,228.26s30-31.7,31.7-45a42.56,42.56,0,0,1,1.14-6.2c2.68-10.13,11-18.49,47.25-33.84,43.39-18.36,43.39-60.07,58.4-105.12,16.76-50.26,120.14-53.4,136.83,6.67,17.12,61.62,30,58.4,81.76,86.77,21.71,11.89,31.35,24.09,35.62,36.69v0c5.92,17.45,1.52,35.69,4.42,55.06C447.14,256.63,515.55,250,512.21,291.67Z"/></clipPath><linearGradient id="linear-gradient-4" x1="286.4" y1="106.35" x2="287.24" y2="414.2" gradientUnits="userSpaceOnUse"><stop offset="0" stop-color="#003da0"/><stop offset="0.75" stop-color="#000f47"/><stop offset="1" stop-color="#00002a"/></linearGradient><linearGradient id="linear-gradient-5" x1="77.21" y1="93.42" x2="437.71" y2="93.42" gradientUnits="userSpaceOnUse"><stop offset="0" stop-color="#00e2d7"/><stop offset="1" stop-color="#fff"/></linearGradient><linearGradient id="linear-gradient-6" x1="366.04" y1="563.62" x2="122.42" y2="417.62" gradientUnits="userSpaceOnUse"><stop offset="0" stop-color="#079fd7"/><stop offset="1" stop-color="#0074bf"/></linearGradient><clipPath id="clip-path-3"><path class="cls-1" d="M438.8,498.57,433,527.77c-10,5-147.67,44.22-191.06,44.22s-85.35-16.09-99.41-44.75c0,0,101.08-65.37,126.11-67s126.81,40,126.81,40S415.44,498.57,438.8,498.57Z"/></clipPath><linearGradient id="linear-gradient-7" x1="336.62" y1="566.28" x2="256.85" y2="474.2" gradientUnits="userSpaceOnUse"><stop offset="0" stop-color="#072ed7"/><stop offset="1" stop-color="#0055bf"/></linearGradient><linearGradient id="linear-gradient-8" x1="198.33" y1="488.08" x2="336.81" y2="488.08" xlink:href="#linear-gradient-7"/><linearGradient id="linear-gradient-9" x1="58.56" y1="813.64" x2="48.55" y2="429.87" xlink:href="#linear-gradient"/><linearGradient id="linear-gradient-10" x1="483.42" y1="803.03" x2="473.41" y2="419.26" gradientUnits="userSpaceOnUse"><stop offset="0" stop-color="#ff826a"/><stop offset="0.63" stop-color="#ffb092"/><stop offset="1" stop-color="#ffcbaa"/></linearGradient><clipPath id="clip-path-4"><path class="cls-1" d="M81.72,516.93s-40,23.36-60.07,28.36-35,15-3.34,23.37,46.72-10,60.07-8.35,25-16.68,25-16.68Z"/></clipPath><linearGradient id="linear-gradient-11" x1="74.34" y1="578.47" x2="54.18" y2="546.48" gradientUnits="userSpaceOnUse"><stop offset="0"/><stop offset="0.28" stop-color="#766a62" stop-opacity="0.54"/><stop offset="1" stop-color="#ffe5d4" stop-opacity="0"/></linearGradient><linearGradient id="linear-gradient-12" x1="223.61" y1="273.6" x2="268.66" y2="475.5" gradientUnits="userSpaceOnUse"><stop offset="0" stop-color="#f09a6f"/><stop offset="1" stop-color="#d62c69"/></linearGradient><clipPath id="clip-path-5"><path class="cls-1" d="M297,436.84c-4-1.77-7.75-3.22-11.35-4.41-13.45-4.4-24.51-4.95-33.92-2.92-36,7.69-48.16,52.8-78.21,64.06-40,15-18.35-41.72,5-93.44s-3.34-95.11-10-116.8,13.34-66.75,20-78.43c2.27-4,8.79-7.75,16.92-11,15.75-6.32,37.59-10.68,46.48-10.68,19,0,38.78,4.21,51.65,8.45a62.31,62.31,0,0,1,11.76,4.9C327.63,204,337,243.28,338.68,255s-8.34,40-13.35,78.43,35,80.09,50.06,106.78S372.05,470.21,297,436.84Z"/></clipPath><linearGradient id="linear-gradient-13" x1="144.28" y1="356.97" x2="205.65" y2="313.18" gradientUnits="userSpaceOnUse"><stop offset="0" stop-color="#fff"/><stop offset="1" stop-color="#fff"/></linearGradient><linearGradient id="linear-gradient-14" x1="318.71" y1="330.05" x2="354.53" y2="330.05" xlink:href="#linear-gradient-13"/><linearGradient id="linear-gradient-15" x1="255.96" y1="328.68" x2="257.21" y2="260.68" gradientUnits="userSpaceOnUse"><stop offset="0" stop-color="#d35f6f"/><stop offset="0.45" stop-color="#7c486c"/><stop offset="1" stop-color="#0f2c69"/></linearGradient><linearGradient id="linear-gradient-16" x1="271.75" y1="414.18" x2="190.69" y2="100.5" gradientUnits="userSpaceOnUse"><stop offset="0" stop-color="#f05f6f"/><stop offset="1" stop-color="#9f2c69"/></linearGradient><linearGradient id="linear-gradient-17" x1="257.98" y1="218.99" x2="250.82" y2="165.78" xlink:href="#linear-gradient-16"/><linearGradient id="linear-gradient-18" x1="252.32" y1="159.93" x2="252.78" y2="212.02" xlink:href="#linear-gradient"/><linearGradient id="linear-gradient-19" x1="252.69" y1="69.17" x2="251.85" y2="157.18" xlink:href="#linear-gradient"/><linearGradient id="linear-gradient-20" x1="177.42" y1="460.78" x2="405.45" y2="463" gradientUnits="userSpaceOnUse"><stop offset="0" stop-color="#079fd7"/><stop offset="1" stop-color="#0099bf"/></linearGradient><linearGradient id="linear-gradient-21" x1="180.35" y1="487.95" x2="402.83" y2="479.61" gradientUnits="userSpaceOnUse"><stop offset="0" stop-color="#077ad7"/><stop offset="1" stop-color="#0055bf"/></linearGradient><linearGradient id="linear-gradient-22" x1="244.41" y1="123.56" x2="256.09" y2="123.56" xlink:href="#linear-gradient-16"/><linearGradient id="linear-gradient-23" x1="225.09" y1="108.2" x2="225.51" y2="138.23" xlink:href="#linear-gradient-16"/><linearGradient id="linear-gradient-24" x1="275.14" y1="107.5" x2="275.56" y2="137.54" xlink:href="#linear-gradient-16"/><linearGradient id="linear-gradient-25" x1="245.73" y1="1.26" x2="252.96" y2="115.84" xlink:href="#linear-gradient-2"/><linearGradient id="linear-gradient-26" x1="212.97" y1="416.71" x2="97.28" y2="227.6" gradientUnits="userSpaceOnUse"><stop offset="0" stop-color="#ff826a"/><stop offset="1" stop-color="#ffdfd4"/></linearGradient><linearGradient id="linear-gradient-27" x1="356.15" y1="401" x2="350.59" y2="234.14" xlink:href="#linear-gradient"/><clipPath id="clip-path-7"><path class="cls-1" d="M395.41,500.24l-70.08,5s-41.71-36.71-51.72-38.38c-9.51-1.58-157.37,73.54-172.32,81.14-.25-.15-.38-.21-.38-.21s40-31.71,58.4-43.39-1.67-15,25-31.7,53.39-46.72,86.76-45c28.49,1.42,92.26,19.87,120.67,37.71C398.27,485.48,395.41,500.24,395.41,500.24Z"/></clipPath><linearGradient id="linear-gradient-28" x1="266.9" y1="489.31" x2="412.93" y2="489.31" xlink:href="#linear-gradient-7"/><clipPath id="clip-path-8"><path class="cls-1" d="M395.41,500.24l-70.08,5s-41.71-36.71-51.72-38.38c-9.51-1.58-157.37,73.54-172.32,81.14l-1.22.62c-21.69-8.34-18.35-31.7-18.35-31.7,33.37-18.36,110.13-90.1,156.85-121.81s46.72-30,106.78,11.68c28,19.42,40.77,41,46.42,58.57C398.27,485.48,395.41,500.24,395.41,500.24Z"/></clipPath><linearGradient id="linear-gradient-29" x1="108.06" y1="438.54" x2="317.12" y2="438.54" xlink:href="#linear-gradient-5"/><clipPath id="clip-path-9"><path class="cls-2" d="M193.51,199.9s-45.88,22.52-73.41,56.73C71.44,317.08,60.86,386,65.87,391s128.48-40,145.16-41.71,33.38,6.67,38.38-1.67c3.83-6.39,4.73-55.51,4.94-77.41a2.26,2.26,0,0,0-4.32-.94c-7.67,17.37-23.2,52.92-28.15,54.15-6.67,1.67-100.12,16.69-100.12,16.69l46.73-66.74S191.85,214.92,193.51,199.9Z"/></clipPath><linearGradient id="linear-gradient-31" x1="107.49" y1="324.85" x2="235.42" y2="233.56" xlink:href="#linear-gradient-11"/><clipPath id="clip-path-10"><path class="cls-1" d="M315.32,196.56s45.05,23.36,73.42,60.07c47.44,61.4,73.42,110.13,63.4,121.81-4.6,5.37-148.5-28.37-165.19-30s-25.22,7.51-30.23-.83c-3.84-6.41-1.47-55.85-.94-77.65a1.93,1.93,0,0,1,3.75-.6c6,17.36,16.5,52.62,21.39,54.05,8.54,2.51,106.15,8.35,106.15,8.35l-49.22-64.24S317,211.58,315.32,196.56Z"/></clipPath><linearGradient id="linear-gradient-32" x1="376.87" y1="370.55" x2="346.84" y2="229.83" gradientUnits="userSpaceOnUse"><stop offset="0"/><stop offset="1" stop-color="#ffe5d4" stop-opacity="0"/></linearGradient><clipPath id="clip-path-11"><path class="cls-1" d="M438.8,498.57s11.66-3.64,23.36,1.67c18.35,8.35,31.17,4.75,41.71,10,20,10,25,16.69,1.67,18.36s-74.25-.84-74.25-.84Z"/></clipPath><linearGradient id="linear-gradient-33" x1="464.68" y1="483.98" x2="472.4" y2="526.45" xlink:href="#linear-gradient-11"/></defs><title>Asset 1</title><g id="Layer_2" data-name="Layer 2"><g id="Layer_1-2" data-name="Layer 1"><path class="cls-3" d="M512.21,291.67c-3.33,41.72-68.41,48.39-80.09,48.39s-126.81-5-155.18-10-68.41,8.34-100.11,11.68-6.68,6.67-95.11-6.68S6.63,241.61,45,228.26s30-31.7,31.7-45a42.56,42.56,0,0,1,1.14-6.2c2.68-10.13,11-18.49,47.25-33.84,43.39-18.36,43.39-60.07,58.4-105.12,16.76-50.26,120.14-53.4,136.83,6.67,17.12,61.62,30,58.4,81.76,86.77,21.71,11.89,31.35,24.09,35.62,36.69v0c5.92,17.45,1.52,35.69,4.42,55.06C447.14,256.63,515.55,250,512.21,291.67Z"/><g class="cls-4"><g class="cls-5"><path class="cls-6" d="M201.31,97.07s-1.6,67.28-52,75.3c-73.42,11.68-32.2,84.47-71.75,95.11C7.47,286.33,24.15,359.08,95.9,371s148.51-45.53,215.25-23.75,178.54,8.05,188.55-19.67-93.44-21.9-91.77-63.47,21.41-81.87-31.71-101c-71.75-25.78-73.41-84.3-90.1-94.2S223.29,58.73,201.31,97.07Z"/></g></g><g class="cls-7"><path class="cls-8" d="M100.91,350.91s4-135.54,58.4-151.85c66.74-20,49.85-82.59,89.16-75.5s61,15.44,71,63.82c7.69,37.14,83.4,11.49,70.08,70.08-16.68,73.42,74,46.67,83.43,75.09S100.91,350.91,100.91,350.91Z"/></g><path class="cls-9" d="M437.71,168.18v0s-4.75-19.19-64-45.06c-35.8-15.63-50.06-35-60.07-70.08C295.18-11.6,212.7.5,194.35,35.54,179.46,64,186,124,142.62,142.33s-63.4,25-65.07,41.72c-.62,6.15-.32,1.4.3-7,2.68-10.13,11-18.49,47.25-33.84,43.39-18.36,43.39-60.07,58.4-105.12,16.76-50.26,120.14-53.4,136.83,6.67,17.12,61.62,30,58.4,81.76,86.77C423.8,143.38,433.44,155.58,437.71,168.18Z"/><path class="cls-10" d="M438.8,498.57,433,527.77c-10,5-147.67,44.22-191.06,44.22s-85.35-16.09-99.41-44.75c0,0,101.08-65.37,126.11-67s126.81,40,126.81,40S415.44,498.57,438.8,498.57Z"/><g class="cls-11"><path class="cls-12" d="M441.3,496.07c-1.67,3.34-10,15-65.08,16.69s-77-.38-85.09,16.68c-15,31.71-136.83,21.69-151.84,0C124,507.32,286.12,444.35,286.12,444.35Z"/><path class="cls-13" d="M336.81,504.43c-.17,0-59,8.33-70.71,10-5.23.74-96.78-10-58.4-26.7,15.15-6.59,69.93-30.56,78.35-25.29S336.81,504.43,336.81,504.43Z"/></g><path class="cls-14" d="M81.72,516.93s-40,23.36-60.07,28.36-35,15-3.34,23.37,46.72-10,60.07-8.35,25-16.68,25-16.68Z"/><path class="cls-15" d="M438.8,498.57s11.66-3.64,23.36,1.67c18.35,8.35,31.17,4.75,41.71,10,20,10,25,16.69,1.67,18.36s-74.25-.84-74.25-.84Z"/><g class="cls-16"><path class="cls-17" d="M15.46,567.86s33.72,0,50.41-10.05,18.35-1.67,23.36-5,18.44-10.31,18.44-10.31l3.25,22S.1,586.26,15.46,567.86Z"/></g><path class="cls-18" d="M297,436.84c-4-1.77-7.75-3.22-11.35-4.41-13.45-4.4-24.51-4.95-33.92-2.92-36,7.69-48.16,52.8-78.21,64.06-40,15-18.35-41.72,5-93.44s-3.34-95.11-10-116.8,13.34-66.75,20-78.43c2.27-4,8.79-7.75,16.92-11,15.75-6.32,37.59-10.68,46.48-10.68,19,0,38.78,4.21,51.65,8.45a62.31,62.31,0,0,1,11.76,4.9C327.63,204,337,243.28,338.68,255s-8.34,40-13.35,78.43,35,80.09,50.06,106.78S372.05,470.21,297,436.84Z"/><g class="cls-19"><path class="cls-20" d="M167.93,266.5s6.31,31.54,19.74,36c10,3.33,15.58,57.28-13.9,107.9,0,0-16.13-127.93-11.12-136.27l5-8.34"/><path class="cls-21" d="M337.85,259.13s-6.68,35-11.68,38.38-8.89,14.3-6.95,28,6.95,53.75,30.31,75.44l5-120.14Z"/></g><ellipse class="cls-22" cx="256.09" cy="321.7" rx="58.4" ry="9.18"/><g class="cls-19"><path class="cls-23" d="M285.62,432.43c-10.75-.85-22.31-2-33.92-2.92-12.75-1-42.22,51.54-54,51.54-53.4,0-1.56-84.49,16.68-141.82,11.68-36.71-48.06-85.85-35-115.14,20-45.05,13.35-23.36,13.35-23.36S206.4,184.16,206,184.05c15.75-6.33,37-.84,45.88-.84,19,0,53-10.08,65.91-5.84,9.5,7.43,8.44,39.5,10,51.73,6.68,51.72-23.36,63.4-25,110.13S354.53,416,356.2,437.67C357.17,450.2,316.41,434.9,285.62,432.43Z"/><path class="cls-24" d="M286.12,185.72c0,9.21-16.69,20-31.7,20-11.68,0-33.37-9.14-33.37-18.36s9-18.35,32.53-18.35S286.12,176.5,286.12,185.72Z"/></g><path class="cls-25" d="M237.31,161.52l2.09,24.2c1,8.51,7.64,11.69,13.9,11.69,7.23,0,12-6.2,12.8-13.36l1.25-22.53Z"/><path class="cls-26" d="M304.89,106.46c0,34.09-23.53,61.74-52.56,61.74s-52.56-27.65-52.56-61.74c0-1.7.07-3.41.2-5.07a66.84,66.84,0,0,1,13.68-36.71c9.6-12.27,23.36-20,38.68-20a45,45,0,0,1,9.4,1s0,0,0,0C281.43,49.89,297.3,67,302.81,89.2l.15.66c.15.61.26,1.15.36,1.58.12.58.2,1,.24,1.2a.61.61,0,0,0,0,.15A72.18,72.18,0,0,1,304.89,106.46Z"/><path class="cls-27" d="M395.41,500.24l-70.08,5s-41.71-36.71-51.72-38.38c-9.51-1.58-157.37,73.54-172.32,81.14l-1.22.62c-21.69-8.34-18.35-31.7-18.35-31.7,33.37-18.36,110.13-90.1,156.85-121.81s46.72-30,106.78,11.68c28,19.42,40.77,41,46.42,58.57C398.27,485.48,395.41,500.24,395.41,500.24Z"/><path class="cls-28" d="M395.41,500.24l-70.08,5s-41.71-36.71-51.72-38.38c-9.51-1.58-157.37,73.54-172.32,81.14-.25-.15-.38-.21-.38-.21s40-31.71,58.4-43.39-1.67-15,25-31.7,53.39-46.72,86.76-45c28.49,1.42,92.26,19.87,120.67,37.71C398.27,485.48,395.41,500.24,395.41,500.24Z"/><polygon class="cls-29" points="248.58 104.79 244.41 142.33 256.09 137.33 248.58 104.79"/><g class="cls-30"><path class="cls-31" d="M224.77,121.45A18.73,18.73,0,0,1,213.9,118a.83.83,0,0,1,.95-1.37c10.25,7.09,20.63.07,20.74,0a.82.82,0,0,1,1.16.21.83.83,0,0,1-.21,1.16A23,23,0,0,1,224.77,121.45Z"/></g><g class="cls-30"><path class="cls-32" d="M274.82,121.45A18.75,18.75,0,0,1,264,118a.83.83,0,1,1,.95-1.37c10.25,7.09,20.64.07,20.75,0a.83.83,0,0,1,1.16.21.84.84,0,0,1-.21,1.16A23,23,0,0,1,274.82,121.45Z"/></g><path class="cls-33" d="M303.59,92.79a.61.61,0,0,1,0-.15c0-.21-.12-.62-.24-1.2-.1-.43-.21-1-.36-1.58l-.15-.66c-6.21-25.08-26.09-44.48-50.48-44.48-28.53,0-50.3,26.13-52.36,56.67A96.48,96.48,0,0,0,233.3,84.27C247.59,93.62,270.32,101.14,303.59,92.79Z"/><path class="cls-34" d="M193.51,199.9s-45.88,22.52-73.41,56.73C71.44,317.08,55.86,379.27,65.87,391c4.6,5.38,128.48-40,145.16-41.71s33.38,6.67,38.38-1.67c3.83-6.39,4.73-55.51,4.94-77.41a2.26,2.26,0,0,0-4.32-.94c-7.67,17.37-23.2,52.92-28.15,54.15-6.67,1.67-100.12,16.69-100.12,16.69l46.73-66.74S191.85,214.92,193.51,199.9Z"/><path class="cls-35" d="M315.32,196.56s45.05,23.36,73.42,60.07c47.44,61.4,73.42,110.13,63.4,121.81-4.6,5.37-148.5-28.37-165.19-30s-25.22,7.51-30.23-.83c-3.84-6.41-1.47-55.85-.94-77.65a1.93,1.93,0,0,1,3.75-.6c6,17.36,16.5,52.62,21.39,54.05,8.54,2.51,106.15,8.35,106.15,8.35l-49.22-64.24S317,211.58,315.32,196.56Z"/><g class="cls-36"><path class="cls-37" d="M266.9,468.55s27.56-10.86,32.57-9.19,19,11.48,35,18.36c23.36,10,40.05,10,51.73-1.67s25,8.34,25,8.34l1.67,21.69s-73.42,13.35-76.75,13.35-25-10-25-10Z"/></g><g class="cls-4"><g class="cls-38"><path class="cls-39" d="M80.88,516.09s186.2-138.16,203.57-136.82c21.69,1.67,105.12,68.41,105.12,68.41l-10-56.73s-83.43-41.71-115.13-26.7S67.54,494.4,80.88,516.09Z"/></g></g><g class="cls-4"><path class="cls-2" d="M193.51,199.9s-45.88,22.52-73.41,56.73C71.44,317.08,60.86,386,65.87,391s128.48-40,145.16-41.71,33.38,6.67,38.38-1.67c3.83-6.39,4.73-55.51,4.94-77.41a2.26,2.26,0,0,0-4.32-.94c-7.67,17.37-23.2,52.92-28.15,54.15-6.67,1.67-100.12,16.69-100.12,16.69l46.73-66.74S191.85,214.92,193.51,199.9Z"/><g class="cls-40"><path class="cls-41" d="M151.22,335.29S103,344,100.91,340.89c-6.68-10,60.07-93.44,85.1-113.46,41.38-33.11,30,10,30,10Z"/></g></g><g class="cls-4"><g class="cls-42"><path class="cls-43" d="M370.92,330.72s50.36,3.5,50.36-3.18S332.5,222.92,320.15,216s-15.68,66.49-15.68,66.49Z"/></g></g><g class="cls-44"><path class="cls-45" d="M509.61,513.27S498,507.75,488,509.42s-38.38-5-45-3.34l-13.35,3.34,5-18.35h56.74S509.51,505.44,509.61,513.27Z"/></g></g></g></svg>